<?xml version="1.0" standalone="no"?>
<!DOCTYPE svg PUBLIC "-//W3C//DTD SVG 20010904//EN"
 "http://www.w3.org/TR/2001/REC-SVG-20010904/DTD/svg10.dtd">
<svg version="1.0" xmlns="http://www.w3.org/2000/svg"
 width="64.000000pt" height="64.000000pt" viewBox="0 0 64.000000 64.000000"
 preserveAspectRatio="xMidYMid meet">

<g transform="translate(0.000000,64.000000) scale(0.100000,-0.100000)"
fill="#000000" stroke="none">
<path d="M437 536 c-14 -35 -7 -75 19 -105 25 -30 27 -61 4 -61 -5 0 -36 23
-67 51 -94 83 -88 76 -73 94 19 23 7 28 -37 16 -21 -6 -60 -11 -88 -11 -62 -1
-125 -28 -152 -66 -73 -102 -37 -255 79 -331 54 -36 162 -44 223 -18 l40 17
-34 10 c-19 5 -48 20 -65 32 -17 13 -42 29 -54 36 -23 11 -24 11 -17 -19 6
-29 5 -31 -21 -31 -60 0 -138 95 -150 183 -8 57 6 66 75 48 69 -18 114 -53
174 -133 67 -90 93 -114 133 -121 34 -6 74 1 74 13 0 4 -13 13 -29 20 l-29 11
34 50 c34 51 54 105 54 147 0 13 8 25 18 28 56 18 82 48 82 95 0 19 -1 19 -22
5 -12 -9 -32 -16 -43 -16 -12 0 -26 -5 -32 -11 -8 -8 -14 -6 -22 9 -6 11 -19
23 -30 27 -10 3 -22 15 -28 27 -9 20 -10 20 -16 4z m-38 -201 c35 -40 38 -50
15 -59 -24 -9 -54 12 -54 39 0 16 -6 25 -15 25 -16 0 -20 12 -8 23 14 14 32 6
62 -28z m-49 -15 c0 -5 -2 -10 -4 -10 -3 0 -8 5 -11 10 -3 6 -1 10 4 10 6 0
11 -4 11 -10z"/>
</g>
</svg>
