<?xml version="1.0" encoding="UTF-8"?>
<!--Generator: Apple Native CoreSVG 326-->
<!DOCTYPE svg
PUBLIC "-//W3C//DTD SVG 1.1//EN"
       "http://www.w3.org/Graphics/SVG/1.1/DTD/svg11.dtd">
<svg version="1.1" xmlns="http://www.w3.org/2000/svg" xmlns:xlink="http://www.w3.org/1999/xlink" viewBox="0 0 222.559 137.842">
 <g>
  <rect height="137.842" opacity="0" width="222.559" x="0" y="0"/>
  <path d="M189.893 38.4766L189.893 59.7481C187.726 59.3283 185.486 59.1309 183.203 59.1309C182.544 59.1309 181.889 59.1474 181.25 59.2309L181.25 38.916C181.25 31.9336 177.393 28.3203 170.703 28.3203L51.8066 28.3203C44.9707 28.3203 41.2598 31.9336 41.2598 38.916L41.2598 98.7793C41.2598 105.762 44.9707 109.424 51.8066 109.424L145.438 109.424C146.3 112.485 147.553 115.386 149.147 118.066L51.6113 118.066C38.9648 118.066 32.6172 111.719 32.6172 99.2188L32.6172 38.4766C32.6172 25.9766 38.9648 19.6289 51.6113 19.6289L170.898 19.6289C183.496 19.6289 189.893 26.0254 189.893 38.4766ZM65.8691 86.2305L65.8691 91.748C65.8691 93.457 64.8438 94.5312 63.1348 94.5312L57.6172 94.5312C55.9082 94.5312 54.8828 93.457 54.8828 91.748L54.8828 86.2305C54.8828 84.5215 55.9082 83.4961 57.6172 83.4961L63.1348 83.4961C64.8438 83.4961 65.8691 84.5215 65.8691 86.2305ZM146.416 84.7113C145.194 87.804 144.399 91.0992 144.051 94.518C143.938 94.5271 143.821 94.5312 143.701 94.5312L78.3691 94.5312C76.3184 94.5312 75.1465 93.3105 75.1465 91.2598L75.1465 86.7188C75.1465 84.668 76.3184 83.4961 78.3691 83.4961L143.701 83.4961C144.937 83.4961 145.871 83.9216 146.416 84.7113ZM65.8691 65.9668L65.8691 71.4844C65.8691 73.1934 64.8438 74.2188 63.1348 74.2188L57.6172 74.2188C55.9082 74.2188 54.8828 73.1934 54.8828 71.4844L54.8828 65.9668C54.8828 64.2578 55.9082 63.2324 57.6172 63.2324L63.1348 63.2324C64.8438 63.2324 65.8691 64.2578 65.8691 65.9668ZM86.1816 65.9668L86.1816 71.4844C86.1816 73.1934 85.1074 74.2188 83.3984 74.2188L77.8809 74.2188C76.1719 74.2188 75.1465 73.1934 75.1465 71.4844L75.1465 65.9668C75.1465 64.2578 76.1719 63.2324 77.8809 63.2324L83.3984 63.2324C85.1074 63.2324 86.1816 64.2578 86.1816 65.9668ZM106.445 65.9668L106.445 71.4844C106.445 73.1934 105.371 74.2188 103.662 74.2188L98.1445 74.2188C96.4355 74.2188 95.4102 73.1934 95.4102 71.4844L95.4102 65.9668C95.4102 64.2578 96.4355 63.2324 98.1445 63.2324L103.662 63.2324C105.371 63.2324 106.445 64.2578 106.445 65.9668ZM126.709 65.9668L126.709 71.4844C126.709 73.1934 125.635 74.2188 123.926 74.2188L118.408 74.2188C116.699 74.2188 115.674 73.1934 115.674 71.4844L115.674 65.9668C115.674 64.2578 116.699 63.2324 118.408 63.2324L123.926 63.2324C125.635 63.2324 126.709 64.2578 126.709 65.9668ZM146.973 65.9668L146.973 71.4844C146.973 73.1934 145.947 74.2188 144.189 74.2188L138.672 74.2188C136.963 74.2188 135.938 73.1934 135.938 71.4844L135.938 65.9668C135.938 64.2578 136.963 63.2324 138.672 63.2324L144.189 63.2324C145.947 63.2324 146.973 64.2578 146.973 65.9668ZM165.567 63.4003C162.108 65.1142 158.953 67.3539 156.201 70.0157L156.201 65.9668C156.201 64.2578 157.227 63.2324 158.936 63.2324L164.453 63.2324C164.867 63.2324 165.24 63.2892 165.567 63.4003ZM65.8691 45.7031L65.8691 51.2207C65.8691 52.9297 64.8438 53.9551 63.1348 53.9551L57.6172 53.9551C55.9082 53.9551 54.8828 52.9297 54.8828 51.2207L54.8828 45.7031C54.8828 43.9941 55.9082 42.9199 57.6172 42.9199L63.1348 42.9199C64.8438 42.9199 65.8691 43.9941 65.8691 45.7031ZM86.1816 45.7031L86.1816 51.2207C86.1816 52.9297 85.1074 53.9551 83.3984 53.9551L77.8809 53.9551C76.1719 53.9551 75.1465 52.9297 75.1465 51.2207L75.1465 45.7031C75.1465 43.9941 76.1719 42.9199 77.8809 42.9199L83.3984 42.9199C85.1074 42.9199 86.1816 43.9941 86.1816 45.7031ZM106.445 45.7031L106.445 51.2207C106.445 52.9297 105.371 53.9551 103.662 53.9551L98.1445 53.9551C96.4355 53.9551 95.4102 52.9297 95.4102 51.2207L95.4102 45.7031C95.4102 43.9941 96.4355 42.9199 98.1445 42.9199L103.662 42.9199C105.371 42.9199 106.445 43.9941 106.445 45.7031ZM126.709 45.7031L126.709 51.2207C126.709 52.9297 125.635 53.9551 123.926 53.9551L118.408 53.9551C116.699 53.9551 115.674 52.9297 115.674 51.2207L115.674 45.7031C115.674 43.9941 116.699 42.9199 118.408 42.9199L123.926 42.9199C125.635 42.9199 126.709 43.9941 126.709 45.7031ZM146.973 45.7031L146.973 51.2207C146.973 52.9297 145.947 53.9551 144.189 53.9551L138.672 53.9551C136.963 53.9551 135.938 52.9297 135.938 51.2207L135.938 45.7031C135.938 43.9941 136.963 42.9199 138.672 42.9199L144.189 42.9199C145.947 42.9199 146.973 43.9941 146.973 45.7031ZM167.236 45.7031L167.236 51.2207C167.236 52.9297 166.211 53.9551 164.453 53.9551L158.936 53.9551C157.227 53.9551 156.201 52.9297 156.201 51.2207L156.201 45.7031C156.201 43.9941 157.227 42.9199 158.936 42.9199L164.453 42.9199C166.211 42.9199 167.236 43.9941 167.236 45.7031Z" fill="white" fill-opacity="0.85"/>
  <path d="M214.795 98.4863C214.795 115.771 200.342 130.029 183.203 130.029C165.918 130.029 151.66 115.869 151.66 98.4863C151.66 81.2012 165.918 66.8945 183.203 66.8945C200.537 66.8945 214.795 81.1523 214.795 98.4863ZM161.377 98.4375C161.377 101.025 163.525 103.174 166.016 103.174C168.604 103.174 170.752 101.025 170.752 98.4375C170.801 95.9473 168.652 93.75 166.016 93.75C163.525 93.75 161.377 95.8984 161.377 98.4375ZM178.564 98.4375C178.564 101.025 180.762 103.174 183.252 103.174C185.791 103.174 187.988 101.025 187.988 98.4375C188.037 95.9473 185.84 93.75 183.252 93.75C180.762 93.75 178.564 95.8984 178.564 98.4375ZM195.654 98.4375C195.654 101.025 197.754 103.174 200.342 103.174C202.881 103.174 205.029 101.025 205.029 98.4375C205.078 95.9473 202.93 93.75 200.342 93.75C197.754 93.75 195.654 95.8984 195.654 98.4375Z" fill="white" fill-opacity="0.85"/>
 </g>
</svg>
