<svg xmlns="http://www.w3.org/2000/svg" viewBox="0 0 95.41 96.338"><path d="M0 38.965C0 60.449 17.48 77.93 38.965 77.93c8.496 0 16.26-2.735 22.656-7.324l24.023 24.072c1.124 1.123 2.588 1.66 4.15 1.66 3.321 0 5.616-2.49 5.616-5.762 0-1.562-.586-2.978-1.611-4.004L69.922 62.55a38.5 38.5 0 0 0 8.008-23.584C77.93 17.48 60.45 0 38.965 0S0 17.48 0 38.965m8.35 0C8.35 22.07 22.07 8.35 38.965 8.35S69.58 22.07 69.58 38.965 55.86 69.58 38.965 69.58 8.35 55.86 8.35 38.965m30.664 20.508c.78 0 1.416-.635 1.611-1.416 2.441-13.233 3.662-15.674 17.383-17.53.879-.097 1.465-.732 1.465-1.562s-.586-1.465-1.465-1.66c-13.672-1.856-15.43-4.395-17.383-17.383-.147-.879-.83-1.465-1.611-1.465-.83 0-1.465.537-1.66 1.416-2.49 13.281-3.663 15.576-17.383 17.432-.88.195-1.465.83-1.465 1.66s.586 1.416 1.465 1.562c13.72 1.367 15.478 4.297 17.382 17.48.147.83.782 1.466 1.66 1.466" fill="#fff" fill-opacity=".85"/></svg>
