<?xml version="1.0" encoding="UTF-8"?>
<!--Generator: Apple Native CoreSVG 326-->
<!DOCTYPE svg
PUBLIC "-//W3C//DTD SVG 1.1//EN"
       "http://www.w3.org/Graphics/SVG/1.1/DTD/svg11.dtd">
<svg version="1.1" xmlns="http://www.w3.org/2000/svg" xmlns:xlink="http://www.w3.org/1999/xlink" viewBox="0 0 118.568 99.6582">
 <g>
  <rect height="99.6582" opacity="0" width="118.568" x="0" y="0"/>
  <path d="M59.2839 0C35.2605 0 14.8503 17.5293 10.407 40.3809L3.47339 40.3809C-0.04224 40.3809-0.921146 42.7734 0.983151 45.5078L11.9207 61.0352C13.532 63.2812 15.8757 63.2324 17.4382 61.0352L28.3757 45.459C30.2312 42.7734 29.3523 40.3809 25.8855 40.3809L18.8542 40.3809C23.0535 21.9238 39.4597 8.34961 59.2839 8.34961C73.1999 8.39844 85.407 15.0879 92.8777 25.4883C94.3425 27.4902 96.6863 28.125 98.6882 26.8555C100.69 25.6836 101.227 22.998 99.5671 20.8496C90.3874 8.30078 75.739 0 59.2839 0ZM59.2839 99.6094C83.3074 99.6094 103.718 82.0312 108.161 59.2285L115.046 59.2285C118.561 59.2285 119.489 56.8359 117.536 54.1016L106.647 38.5742C105.036 36.3281 102.692 36.377 101.13 38.5742L90.1921 54.1504C88.2878 56.8359 89.2156 59.2285 92.6824 59.2285L99.7624 59.2285C95.5144 77.6367 79.0593 91.3086 59.2839 91.3086C45.3679 91.2598 33.1609 84.5215 25.6902 74.1211C24.1765 72.1191 21.8816 71.4844 19.8308 72.7051C17.8777 73.9258 17.3406 76.6113 19.0007 78.7598C28.1804 91.3086 42.8289 99.6094 59.2839 99.6094Z" fill="white" fill-opacity="0.85"/>
  <path d="M59.2839 21.2402C57.0378 21.2402 55.2312 22.998 55.2312 25.2441L55.2312 52.832C55.2312 54.0039 55.6218 54.9805 56.4519 56.1035L68.2683 71.6797C69.9773 73.9258 72.3699 74.2676 74.4207 72.8516C76.2273 71.582 76.4226 69.1406 74.9089 67.041L58.8445 45.3125L63.2878 58.9355L63.2878 25.2441C63.2878 22.998 61.4812 21.2402 59.2839 21.2402Z" fill="white" fill-opacity="0.85"/>
 </g>
</svg>
