<?xml version="1.0" encoding="UTF-8"?>
<!--Generator: Apple Native CoreSVG 326-->
<!DOCTYPE svg
PUBLIC "-//W3C//DTD SVG 1.1//EN"
       "http://www.w3.org/Graphics/SVG/1.1/DTD/svg11.dtd">
<svg version="1.1" xmlns="http://www.w3.org/2000/svg" xmlns:xlink="http://www.w3.org/1999/xlink" viewBox="0 0 125.834 145.398">
 <g>
  <rect height="145.398" opacity="0" width="125.834" x="0" y="0"/>
  <path d="M103.957 43.1334L103.957 102.362C103.957 112.616 98.9276 117.694 88.8202 117.694L36.9647 117.694C26.8573 117.694 21.828 112.616 21.828 102.362L21.828 67.3947C23.9408 69.2087 26.911 69.8726 29.6893 69.0624L29.6893 102.264C29.6893 107.147 32.2772 109.833 37.3554 109.833L88.4784 109.833C93.5077 109.833 96.0956 107.147 96.0956 102.264L96.0956 43.2311C96.0956 38.3482 93.5077 35.6627 88.4296 35.6627L44.2584 35.6627C44.1673 33.7229 43.3799 31.757 41.7499 30.0963L39.5161 27.8014L88.8202 27.8014C98.9276 27.8014 103.957 32.8795 103.957 43.1334Z" fill="white" fill-opacity="0.85"/>
  <path d="M83.3026 91.9127C83.3026 93.5728 82.0331 94.8424 80.2753 94.8424L44.3378 94.8424C42.58 94.8424 41.2616 93.5728 41.2616 91.9127C41.2616 90.2037 42.58 88.8365 44.3378 88.8365L80.2753 88.8365C82.0331 88.8365 83.3026 90.2037 83.3026 91.9127Z" fill="white" fill-opacity="0.85"/>
  <path d="M83.3026 72.6744C83.3026 74.3834 82.0331 75.7506 80.2753 75.7506L44.3378 75.7506C42.58 75.7506 41.2616 74.3834 41.2616 72.6744C41.2616 71.0143 42.58 69.7447 44.3378 69.7447L80.2753 69.7447C82.0331 69.7447 83.3026 71.0143 83.3026 72.6744Z" fill="white" fill-opacity="0.85"/>
  <path d="M83.3026 53.5826C83.3026 55.2916 82.0331 56.61 80.2753 56.61L44.3378 56.61C42.58 56.61 41.2616 55.2916 41.2616 53.5826C41.2616 51.9225 42.58 50.6041 44.3378 50.6041L80.2753 50.6041C82.0331 50.6041 83.3026 51.9225 83.3026 53.5826Z" fill="white" fill-opacity="0.85"/>
  <path d="M6.64247 47.5768C6.59365 49.4322 8.83974 50.067 10.0604 48.8463L17.5311 41.3756L25.6854 61.5904C26.0761 62.5182 27.0526 62.9576 27.9315 62.6158L32.8143 60.6627C33.6933 60.2721 34.0351 59.2467 33.5956 58.3189L25.0018 38.4459L35.4999 38.0064C37.3554 37.9088 38.2831 36.151 36.9159 34.735L10.2558 7.29355C9.03505 6.07285 7.13075 6.75644 7.08193 8.56308Z" fill="white" fill-opacity="0.85"/>
 </g>
</svg>
