<svg xmlns="http://www.w3.org/2000/svg" viewBox="0 0 82.129 104.736"><path d="M22.46 67.969h37.306c1.757 0 3.027-1.367 3.027-3.076 0-1.66-1.27-2.93-3.027-2.93H22.46c-1.758 0-3.076 1.27-3.076 2.93 0 1.709 1.318 3.076 3.076 3.076m0 14.648h17.628c1.758 0 3.027-1.27 3.027-2.93 0-1.709-1.27-3.076-3.027-3.076H22.46c-1.758 0-3.076 1.367-3.076 3.076 0 1.66 1.318 2.93 3.076 2.93m8.058-32.47h3.808c.342 0 .586.146.88.439l2.733 2.637c2.149 2.246 4.2 2.197 6.348 0l2.735-2.637c.293-.244.488-.44.878-.44h3.76c3.076 0 4.541-1.416 4.541-4.443v-3.809c0-.341.049-.634.342-.878l2.685-2.735c2.198-2.148 2.198-4.199 0-6.396l-2.685-2.686c-.293-.244-.342-.537-.342-.879v-3.808c0-3.076-1.416-4.492-4.54-4.492H47.9c-.391 0-.587-.196-.88-.391l-2.734-2.637c-2.148-2.246-4.2-2.197-6.347 0l-2.735 2.637c-.244.293-.537.39-.879.39h-3.808c-3.077 0-4.541 1.368-4.541 4.493v3.808c0 .342-.05.635-.342.88l-2.686 2.685c-2.197 2.197-2.197 4.248 0 6.396l2.686 2.735c.293.244.342.537.342.879v3.808c0 3.027 1.464 4.444 4.54 4.444m8.593-5.909c-.732 0-1.367-.341-2.002-1.123l-4.394-5.37c-.342-.392-.586-.929-.586-1.466 0-1.123.83-2.1 2.1-2.1.683 0 1.22.343 1.806 1.026l3.028 3.809 6.982-11.182c.39-.635 1.025-1.123 1.758-1.123 1.074 0 2.1.781 2.1 1.953 0 .537-.294 1.123-.538 1.514l-8.203 12.89c-.488.83-1.22 1.172-2.05 1.172M0 89.404c0 10.205 5.03 15.284 15.137 15.284h51.855c10.108 0 15.137-5.079 15.137-15.284V15.332C82.129 5.176 77.099 0 66.992 0H15.137C5.029 0 0 5.176 0 15.332Zm7.861-.146v-73.78c0-4.882 2.588-7.617 7.666-7.617h51.075c5.078 0 7.666 2.735 7.666 7.618v73.779c0 4.883-2.588 7.568-7.666 7.568H15.527c-5.078 0-7.666-2.685-7.666-7.568" fill="#fff" fill-opacity=".85"/></svg>
