<?xml version="1.0" standalone="no"?>
<!DOCTYPE svg PUBLIC "-//W3C//DTD SVG 20010904//EN"
 "http://www.w3.org/TR/2001/REC-SVG-20010904/DTD/svg10.dtd">
<svg version="1.0" xmlns="http://www.w3.org/2000/svg"
 width="64.000000pt" height="64.000000pt" viewBox="0 0 64.000000 64.000000"
 preserveAspectRatio="xMidYMid meet">

<g transform="translate(0.000000,64.000000) scale(0.100000,-0.100000)"
fill="#000000" stroke="none">
<path d="M99 541 l-29 -29 0 -192 0 -192 29 -29 29 -29 192 0 192 0 29 29 29
29 0 192 0 192 -29 29 -29 29 -192 0 -192 0 -29 -29z m330 -115 l63 -64 -38
-12 c-42 -13 -107 -68 -98 -82 3 -5 3 -21 -1 -35 -6 -26 -7 -25 -75 42 -38 38
-67 72 -64 77 3 4 20 8 38 8 32 0 86 42 86 67 0 13 18 63 23 63 1 0 31 -29 66
-64z m-161 -188 c-117 -89 -121 -90 -54 0 38 49 41 51 59 35 18 -17 17 -18 -5
-35z"/>
</g>
</svg>
