<?xml version="1.0" standalone="no"?>
<!DOCTYPE svg PUBLIC "-//W3C//DTD SVG 20010904//EN"
 "http://www.w3.org/TR/2001/REC-SVG-20010904/DTD/svg10.dtd">
<svg version="1.0" xmlns="http://www.w3.org/2000/svg"
 width="64.000000pt" height="64.000000pt" viewBox="0 0 64.000000 64.000000"
 preserveAspectRatio="xMidYMid meet">

<g transform="translate(0.000000,64.000000) scale(0.100000,-0.100000)"
fill="#000000" stroke="none">
<path d="M111 531 c-76 -10 -97 -37 -106 -137 -9 -95 1 -222 21 -252 8 -13 27
-28 42 -33 36 -14 468 -14 504 0 54 20 63 51 63 206 0 151 -8 180 -57 206 -26
14 -381 22 -467 10z m297 -206 c11 -10 -2 -21 -67 -58 l-81 -46 0 96 0 95 68
-37 c37 -21 73 -43 80 -50z"/>
</g>
</svg>
